<?xml version="1.0" encoding="utf-8"?>
<!-- Generator: Adobe Illustrator 27.4.1, SVG Export Plug-In . SVG Version: 6.00 Build 0)  -->
<svg version="1.1" id="completo" xmlns="http://www.w3.org/2000/svg" xmlns:xlink="http://www.w3.org/1999/xlink" x="0px" y="0px"
	 viewBox="0 0 180 60" style="enable-background:new 0 0 180 60;" xml:space="preserve">
<style type="text/css">
	.st0{clip-path:url(#SVGID_00000023970918327085218210000007174563840592179366_);}
	.st1{fill:url(#SVGID_00000079477942226744115900000012695710187470043827_);}
	.st2{clip-path:url(#SVGID_00000132084774389348106070000015602400153132731529_);}
	.st3{fill:url(#SVGID_00000165204702477349925350000003082766619172544653_);}
	.st4{clip-path:url(#SVGID_00000016776210756591397790000007981489631705824694_);}
	.st5{fill:url(#SVGID_00000055694580847061863600000000924687727695716503_);}
	.st6{clip-path:url(#SVGID_00000078003506408941693110000013731504160325064097_);}
	.st7{fill:url(#SVGID_00000148663574619668698120000016333046472408549813_);}
	.st8{clip-path:url(#SVGID_00000052788712925852018780000012954959092526089390_);}
	.st9{fill:url(#SVGID_00000119831705878922134650000015938512875313202849_);}
	.st10{clip-path:url(#SVGID_00000031201195659258171290000017864695304308800165_);}
	.st11{fill:url(#SVGID_00000005243224613407659740000013213234121401664141_);}
	.st12{clip-path:url(#SVGID_00000077293160717673000910000009105852507762325125_);}
	.st13{fill:url(#SVGID_00000146457551516378429200000009442992710554932608_);}
	.st14{clip-path:url(#SVGID_00000017501247661349431780000006115158098023428504_);}
	.st15{fill:url(#SVGID_00000093871049488278896120000003373420479808687034_);}
	.st16{clip-path:url(#SVGID_00000116919474731015877710000009334002337916444289_);}
	.st17{fill:url(#SVGID_00000081621988711322667550000009800022070780189594_);}
	.st18{clip-path:url(#SVGID_00000039128433151224425630000000378993862122934968_);}
	.st19{fill:url(#SVGID_00000096040697257354455810000014928306686121524149_);}
	.st20{clip-path:url(#SVGID_00000178919735407973945210000004906189015282749867_);}
	.st21{fill:url(#SVGID_00000167359173278241726820000004044991342074133130_);}
	.st22{clip-path:url(#SVGID_00000106121963108992131970000017509183172403010205_);}
	.st23{fill:url(#SVGID_00000005248105484092899150000007054930939366538629_);}
	.st24{fill:#003399;}
	.st25{fill:#333333;}
	.st26{fill:none;}
</style>
<g>
	<g>
		<defs>
			<polygon id="SVGID_1_" points="25.8,26.9 46.1,15 46.1,6.6 25.8,18.5 			"/>
		</defs>
		<clipPath id="SVGID_00000153671540110386097660000016186999299993733767_">
			<use xlink:href="#SVGID_1_"  style="overflow:visible;"/>
		</clipPath>
		<g style="clip-path:url(#SVGID_00000153671540110386097660000016186999299993733767_);">
			
				<linearGradient id="SVGID_00000083073844673132951860000014420601755161409681_" gradientUnits="userSpaceOnUse" x1="31.0409" y1="46.4136" x2="47.3909" y2="42.5636" gradientTransform="matrix(1 0 0 -1 0 62)">
				<stop  offset="0" style="stop-color:#006633"/>
				<stop  offset="1" style="stop-color:#33CC33"/>
			</linearGradient>
			
				<rect x="25.8" y="6.6" style="fill:url(#SVGID_00000083073844673132951860000014420601755161409681_);" width="20.3" height="20.3"/>
		</g>
	</g>
	<g>
		<defs>
			<polygon id="SVGID_00000155840960155493324370000008788299872093879196_" points="25.9,41.4 37.9,34.3 30.4,29.8 25.9,32.5 			
				"/>
		</defs>
		<clipPath id="SVGID_00000133498544709124734850000007054350992829065623_">
			<use xlink:href="#SVGID_00000155840960155493324370000008788299872093879196_"  style="overflow:visible;"/>
		</clipPath>
		<g style="clip-path:url(#SVGID_00000133498544709124734850000007054350992829065623_);">
			
				<linearGradient id="SVGID_00000029738894844123136730000008560650238440403848_" gradientUnits="userSpaceOnUse" x1="27.6118" y1="24.1865" x2="54.1618" y2="37.6265" gradientTransform="matrix(1 0 0 -1 0 62)">
				<stop  offset="0" style="stop-color:#141C5C"/>
				<stop  offset="1" style="stop-color:#003399"/>
			</linearGradient>
			
				<rect x="25.9" y="29.8" style="fill:url(#SVGID_00000029738894844123136730000008560650238440403848_);" width="12" height="11.6"/>
		</g>
	</g>
	<g>
		<defs>
			<polygon id="SVGID_00000065758686925794890420000011790498387218696374_" points="60,36.5 53,40.5 53,49.5 60,45.4 			"/>
		</defs>
		<clipPath id="SVGID_00000091698649960815089640000002023640714461505714_">
			<use xlink:href="#SVGID_00000065758686925794890420000011790498387218696374_"  style="overflow:visible;"/>
		</clipPath>
		<g style="clip-path:url(#SVGID_00000091698649960815089640000002023640714461505714_);">
			
				<linearGradient id="SVGID_00000163074470581516218710000004562878162399150526_" gradientUnits="userSpaceOnUse" x1="88.971" y1="24.5238" x2="47.681" y2="17.5538" gradientTransform="matrix(1 0 0 -1 0 62)">
				<stop  offset="0" style="stop-color:#141C5C"/>
				<stop  offset="1" style="stop-color:#003399"/>
			</linearGradient>
			<rect x="53" y="36.5" style="fill:url(#SVGID_00000163074470581516218710000004562878162399150526_);" width="7" height="13"/>
		</g>
	</g>
	<g>
		<defs>
			<polygon id="SVGID_00000022561129358511210020000007306765041537924747_" points="25.9,32.5 32.7,36.5 32.7,45.4 25.9,41.4 			
				"/>
		</defs>
		<clipPath id="SVGID_00000022555813957935629590000002372833640401194143_">
			<use xlink:href="#SVGID_00000022561129358511210020000007306765041537924747_"  style="overflow:visible;"/>
		</clipPath>
		<g style="clip-path:url(#SVGID_00000022555813957935629590000002372833640401194143_);">
			
				<linearGradient id="SVGID_00000177483780199515909220000005734578278967638144_" gradientUnits="userSpaceOnUse" x1="-2.24" y1="28.2302" x2="37.89" y2="21.6602" gradientTransform="matrix(1 0 0 -1 0 62)">
				<stop  offset="0" style="stop-color:#141C5C"/>
				<stop  offset="1" style="stop-color:#003399"/>
			</linearGradient>
			
				<rect x="25.9" y="32.5" style="fill:url(#SVGID_00000177483780199515909220000005734578278967638144_);" width="6.8" height="12.9"/>
		</g>
	</g>
	<g>
		<defs>
			<polygon id="SVGID_00000161611258798320572840000004152724229131731376_" points="32.7,36.5 39.5,40.5 39.5,49.4 32.7,45.4 			
				"/>
		</defs>
		<clipPath id="SVGID_00000036961813178428068380000006446012474475372222_">
			<use xlink:href="#SVGID_00000161611258798320572840000004152724229131731376_"  style="overflow:visible;"/>
		</clipPath>
		<g style="clip-path:url(#SVGID_00000036961813178428068380000006446012474475372222_);">
			
				<linearGradient id="SVGID_00000054961280432430790330000009851589000228509618_" gradientUnits="userSpaceOnUse" x1="32.83" y1="18.36" x2="44.7" y2="20.95" gradientTransform="matrix(1 0 0 -1 0 62)">
				<stop  offset="0" style="stop-color:#141C5C"/>
				<stop  offset="1" style="stop-color:#003399"/>
			</linearGradient>
			
				<rect x="32.7" y="36.5" style="fill:url(#SVGID_00000054961280432430790330000009851589000228509618_);" width="6.8" height="12.9"/>
		</g>
	</g>
	<g>
		<defs>
			<polygon id="SVGID_00000008827265610077076320000015984438986385562280_" points="39.5,40.5 46.3,44.4 46.3,53.3 39.5,49.4 			
				"/>
		</defs>
		<clipPath id="SVGID_00000002351823248772150320000015231377930551657604_">
			<use xlink:href="#SVGID_00000008827265610077076320000015984438986385562280_"  style="overflow:visible;"/>
		</clipPath>
		<g style="clip-path:url(#SVGID_00000002351823248772150320000015231377930551657604_);">
			
				<linearGradient id="SVGID_00000014595095110082185030000004616969826686996668_" gradientUnits="userSpaceOnUse" x1="11.3598" y1="20.2686" x2="51.4898" y2="13.6986" gradientTransform="matrix(1 0 0 -1 0 62)">
				<stop  offset="0" style="stop-color:#141C5C"/>
				<stop  offset="1" style="stop-color:#003399"/>
			</linearGradient>
			
				<rect x="39.5" y="40.5" style="fill:url(#SVGID_00000014595095110082185030000004616969826686996668_);" width="6.8" height="12.9"/>
		</g>
	</g>
	<g>
		<defs>
			<polygon id="SVGID_00000146478995904153151180000006819761293953596814_" points="46.3,53.3 53,49.5 53,40.5 46.3,44.4 			"/>
		</defs>
		<clipPath id="SVGID_00000080905686726672374690000002303090354765507007_">
			<use xlink:href="#SVGID_00000146478995904153151180000006819761293953596814_"  style="overflow:visible;"/>
		</clipPath>
		<g style="clip-path:url(#SVGID_00000080905686726672374690000002303090354765507007_);">
			
				<linearGradient id="SVGID_00000119081008253780800070000009879408560162111661_" gradientUnits="userSpaceOnUse" x1="46.399" y1="14.3649" x2="58.109" y2="16.8649" gradientTransform="matrix(1 0 0 -1 0 62)">
				<stop  offset="0" style="stop-color:#141C5C"/>
				<stop  offset="1" style="stop-color:#003399"/>
			</linearGradient>
			
				<rect x="46.3" y="40.5" style="fill:url(#SVGID_00000119081008253780800070000009879408560162111661_);" width="6.7" height="12.8"/>
		</g>
	</g>
	<g>
		<defs>
			<path id="SVGID_00000094596613736031398820000011145601795778572456_" d="M44.6,29.2c1.1-0.8,1.5-1.8,1.6-4v-5.4L37.4,25
				L44.6,29.2z"/>
		</defs>
		<clipPath id="SVGID_00000173883431465570718060000015739629230426779289_">
			<use xlink:href="#SVGID_00000094596613736031398820000011145601795778572456_"  style="overflow:visible;"/>
		</clipPath>
		<g style="clip-path:url(#SVGID_00000173883431465570718060000015739629230426779289_);">
			
				<linearGradient id="SVGID_00000101798111920586749660000008792484025614788277_" gradientUnits="userSpaceOnUse" x1="41.4855" y1="36.8472" x2="45.0455" y2="43.7372" gradientTransform="matrix(1 0 0 -1 0 62)">
				<stop  offset="0" style="stop-color:#006633"/>
				<stop  offset="1" style="stop-color:#33CC33"/>
			</linearGradient>
			
				<rect x="37.4" y="19.9" style="fill:url(#SVGID_00000101798111920586749660000008792484025614788277_);" width="8.8" height="9.3"/>
		</g>
	</g>
	<g>
		<defs>
			<polygon id="SVGID_00000054966408295311146160000011800651107033265053_" points="60,45.4 66.6,41.5 66.6,32.6 60,36.5 			"/>
		</defs>
		<clipPath id="SVGID_00000085953986708113281490000007297958615374599303_">
			<use xlink:href="#SVGID_00000054966408295311146160000011800651107033265053_"  style="overflow:visible;"/>
		</clipPath>
		<g style="clip-path:url(#SVGID_00000085953986708113281490000007297958615374599303_);">
			
				<linearGradient id="SVGID_00000137123279499384816750000001560673891348388749_" gradientUnits="userSpaceOnUse" x1="60.0394" y1="22.3428" x2="71.7494" y2="24.8428" gradientTransform="matrix(1 0 0 -1 0 62)">
				<stop  offset="0" style="stop-color:#141C5C"/>
				<stop  offset="1" style="stop-color:#003399"/>
			</linearGradient>
			
				<rect x="60" y="32.6" style="fill:url(#SVGID_00000137123279499384816750000001560673891348388749_);" width="6.6" height="12.8"/>
		</g>
	</g>
	<g>
		<defs>
			<polygon id="SVGID_00000039820783400157779780000002191679922247098557_" points="25.8,18.5 46,30.4 46,38.9 25.8,26.9 			"/>
		</defs>
		<clipPath id="SVGID_00000167355561626708727140000010632820389955622560_">
			<use xlink:href="#SVGID_00000039820783400157779780000002191679922247098557_"  style="overflow:visible;"/>
		</clipPath>
		<g style="clip-path:url(#SVGID_00000167355561626708727140000010632820389955622560_);">
			
				<linearGradient id="SVGID_00000134965858348678285140000010444688183965170349_" gradientUnits="userSpaceOnUse" x1="42.9723" y1="27.963" x2="29.7923" y2="37.993" gradientTransform="matrix(1 0 0 -1 0 62)">
				<stop  offset="0" style="stop-color:#006633"/>
				<stop  offset="1" style="stop-color:#33CC33"/>
			</linearGradient>
			
				<rect x="25.8" y="18.5" style="fill:url(#SVGID_00000134965858348678285140000010444688183965170349_);" width="20.2" height="20.4"/>
		</g>
	</g>
	<g>
		<defs>
			<path id="SVGID_00000039126564217732219480000014104056097804521127_" d="M46.5,6.7l20.2,11.9l0,4c0,2.3-1.4,3.4-3.2,2.4l-13.9-8
				c-1.7-1-3.2-3.7-3.2-6.1C46.5,10.9,46.5,6.7,46.5,6.7z"/>
		</defs>
		<clipPath id="SVGID_00000002361670468356206930000009486304404981548981_">
			<use xlink:href="#SVGID_00000039126564217732219480000014104056097804521127_"  style="overflow:visible;"/>
		</clipPath>
		<g style="clip-path:url(#SVGID_00000002361670468356206930000009486304404981548981_);">
			
				<linearGradient id="SVGID_00000133496925443087495910000004584484095643138977_" gradientUnits="userSpaceOnUse" x1="59.5947" y1="41.5234" x2="52.6547" y2="50.9834" gradientTransform="matrix(1 0 0 -1 0 62)">
				<stop  offset="0" style="stop-color:#006633"/>
				<stop  offset="1" style="stop-color:#33CC33"/>
			</linearGradient>
			
				<rect x="46.5" y="6.7" style="fill:url(#SVGID_00000133496925443087495910000004584484095643138977_);" width="20.2" height="19.3"/>
		</g>
	</g>
	<g>
		<defs>
			<path id="SVGID_00000138559048298124259170000003940192574007932838_" d="M66.7,18.6l-17,9.9c-1.7,1-3.2,3.7-3.2,6v4.2l17-9.9
				c1.7-1,3.2-3.7,3.2-6C66.7,22.8,66.7,18.6,66.7,18.6z"/>
		</defs>
		<clipPath id="SVGID_00000059283349402630655080000012745103853280410782_">
			<use xlink:href="#SVGID_00000138559048298124259170000003940192574007932838_"  style="overflow:visible;"/>
		</clipPath>
		<g style="clip-path:url(#SVGID_00000059283349402630655080000012745103853280410782_);">
			
				<linearGradient id="SVGID_00000127735806455439810430000005885363277867777451_" gradientUnits="userSpaceOnUse" x1="60.206" y1="29.015" x2="54.846" y2="35.435" gradientTransform="matrix(1 0 0 -1 0 62)">
				<stop  offset="0" style="stop-color:#006633"/>
				<stop  offset="1" style="stop-color:#33CC33"/>
			</linearGradient>
			
				<rect x="46.5" y="18.6" style="fill:url(#SVGID_00000127735806455439810430000005885363277867777451_);" width="20.2" height="20.1"/>
		</g>
	</g>
	<polygon class="st24" points="72.5,29.4 76.5,29.4 76.5,21.8 84.8,21.8 84.8,18.1 76.5,18.1 76.5,13.4 85.8,13.4 85.8,9.7 
		72.5,9.7 	"/>
	<path class="st24" d="M140,26.3h-0.3c-1.9,0-2.8-1-2.8-3v-2.1c0-2,0.9-2.9,2.8-2.9h0.3c1.9,0,2.8,1,2.8,2.9v2.1
		C142.8,25.3,141.9,26.3,140,26.3 M139.7,29.8h0.4c4.4,0,6.6-2.3,6.6-6.6v-1.9c0-4.3-2.2-6.6-6.6-6.6h-0.4c-4.4,0-6.6,2.3-6.6,6.6
		v1.9C133.1,27.5,135.3,29.8,139.7,29.8z"/>
	<path class="st24" d="M93.9,29.8h0.2c4.3,0,6.4-2.1,6.4-6.4v-8.2h-3.8v8.2c0,1.9-0.9,2.8-2.6,2.8h-0.3c-1.7,0-2.6-0.9-2.6-2.8v-8.2
		h-3.8v8.2C87.5,27.7,89.7,29.8,93.9,29.8"/>
	<path class="st24" d="M102.6,21.2v8.2h3.8v-8.2c0-1.9,0.9-2.8,2.7-2.8h0.3c1.8,0,2.7,0.9,2.7,2.8v8.2h3.8v-8.2
		c0-4.3-2.1-6.4-6.3-6.4h-0.6C104.7,14.8,102.6,16.9,102.6,21.2"/>
	<path class="st24" d="M124.7,26.3h-0.5c-1.9,0-2.8-1-2.8-3v-2.1c0-2,0.9-2.9,2.8-2.9h0.5c1.9,0,2.8,1,2.8,2.9v2.1
		C127.5,25.3,126.6,26.3,124.7,26.3 M124.2,29.8h0.6c4.4,0,6.6-2.3,6.6-6.6V9.7h-3.8v4.6l0.2,2c-0.8-0.9-1.9-1.5-3.6-1.5h-0.6
		c-3.8,0-6,2.3-6,6.6v1.9C117.6,27.5,119.8,29.8,124.2,29.8L124.2,29.8z"/>
	<path class="st24" d="M78.8,50.1h0.4c4.1,0,6.3-2.1,6.5-6.1h-3.9c0,1.1-0.6,2.6-2.7,2.6h-0.3c-1.8,0-2.7-1-2.7-3v-2.1
		c0-2,0.9-2.9,2.7-2.9h0.3c1.7,0,2.6,0.9,2.7,2.5h3.8c-0.2-4-2.4-6.1-6.5-6.1h-0.4c-4.3,0-6.5,2.3-6.5,6.6v1.9
		C72.2,47.9,74.4,50.2,78.8,50.1"/>
	<path class="st24" d="M94.1,46.6h-0.3c-1.9,0-2.8-1-2.8-3v-2.1c0-2,0.9-2.9,2.8-2.9h0.3c1.9,0,2.8,1,2.8,2.9v2.1
		C96.9,45.6,95.9,46.6,94.1,46.6 M93.7,50.1h0.4c4.4,0,6.6-2.3,6.6-6.6v-1.9c0-4.3-2.2-6.6-6.6-6.6h-0.4c-4.4,0-6.6,2.3-6.6,6.6v1.9
		C87.1,47.8,89.3,50.1,93.7,50.1z"/>
	<path class="st24" d="M102.6,30v13.8c0,4.5,1.7,5.9,5.4,5.9h1.6v-3.5h-0.7c-1.8,0-2.5-0.5-2.5-2.1V30L102.6,30L102.6,30z"/>
	<path class="st25" d="M112.8,33.9h2.2c0.8,0,1.2,0.5,1.2,1.3v0.5c0,0.8-0.5,1.3-1.2,1.3h-2.2C112.8,36.9,112.8,33.9,112.8,33.9z
		 M112,33v7.1h0.9v-2.3h2.3c1.1,0,2-0.9,2-2.1V35c0-1.1-0.9-2-2-2H112z"/>
	<path class="st25" d="M120.6,35h-0.8c-1.3,0-2.1,0.8-2.1,2v3h0.8v-3c0-0.8,0.5-1.3,1.3-1.3h0.7C120.6,35.8,120.6,35,120.6,35z"/>
	<path class="st25" d="M123.3,39.4H123c-0.8,0-1.3-0.5-1.3-1.3V37c0-0.8,0.5-1.3,1.3-1.3h0.3c0.8,0,1.3,0.5,1.3,1.3v1.1
		C124.6,38.9,124.1,39.4,123.3,39.4 M123,40.2h0.3c1.3,0,2.1-0.8,2.1-2.1V37c0-1.3-0.8-2.1-2.1-2.1H123c-1.3,0-2.1,0.8-2.1,2.1v1.1
		C120.9,39.4,121.7,40.2,123,40.2z"/>
	<path class="st25" d="M125.9,42.2h0.5c1.1,0,1.7-0.7,2.2-2.1l2.2-5.1h-0.9l-1.1,2.5l-0.6,1.5l-0.6-1.5l-1.1-2.5h-0.9l2.3,5
		l-0.2,0.3c-0.3,0.7-0.6,1.1-1.3,1.1h-0.5L125.9,42.2L125.9,42.2z"/>
	<path class="st25" d="M131.9,37.2V37c0-0.8,0.5-1.3,1.3-1.3h0.3c0.8,0,1.3,0.5,1.3,1.3v0.2H131.9z M133.1,40.2h0.3
		c1.1,0,1.9-0.6,2.1-1.6h-0.9c-0.1,0.5-0.6,0.8-1.2,0.8h-0.3c-0.8,0-1.3-0.5-1.3-1.3V38h3.7v-1c0-1.3-0.8-2.1-2.1-2.1h-0.3
		c-1.3,0-2.1,0.8-2.1,2.1v1.1C131,39.4,131.8,40.2,133.1,40.2z"/>
	<path class="st25" d="M138.4,40.2h0.3c1.3,0,2-0.7,2.1-1.9H140c-0.1,0.7-0.5,1.1-1.3,1.1h-0.3c-0.8,0-1.3-0.5-1.3-1.3V37
		c0-0.8,0.5-1.3,1.3-1.3h0.3c0.7,0,1.2,0.4,1.3,1.1h0.8c-0.1-1.2-0.8-1.9-2.1-1.9h-0.3c-1.3,0-2.1,0.8-2.1,2.1v1.1
		C136.3,39.4,137.1,40.2,138.4,40.2"/>
	<path class="st25" d="M141.7,33.7v4.4c0,1.3,0.8,1.9,2,1.9h0.6v-0.8h-0.5c-0.7,0-1.3-0.4-1.3-1.2v-2.3h1.7V35h-1.7v-1.3H141.7
		L141.7,33.7z"/>
	<path class="st25" d="M147.1,39.4h-0.3c-0.8,0-1.3-0.5-1.3-1.3V37c0-0.8,0.5-1.3,1.3-1.3h0.3c0.8,0,1.3,0.5,1.3,1.3v1.1
		C148.4,38.9,147.9,39.4,147.1,39.4 M146.8,40.2h0.3c1.3,0,2.1-0.8,2.1-2.1V37c0-1.3-0.8-2.1-2.1-2.1h-0.3c-1.3,0-2.1,0.8-2.1,2.1
		v1.1C144.7,39.4,145.5,40.2,146.8,40.2z"/>
	<path class="st25" d="M151.8,40.2h0.5c1.2,0,1.9-0.5,1.9-1.5c0-1.1-0.7-1.4-1.6-1.5c-0.2,0-0.7-0.1-0.9-0.2
		c-0.6-0.1-0.9-0.3-0.9-0.8c0-0.4,0.3-0.7,1.1-0.7h0.4c0.8,0,1.1,0.3,1.1,0.8h0.8c0-0.9-0.6-1.5-1.8-1.5h-0.4
		c-1.2,0-1.9,0.5-1.9,1.4c0,1,0.7,1.3,1.6,1.5c0.2,0,0.7,0.1,0.9,0.2c0.6,0.1,1,0.3,1,0.8c0,0.4-0.3,0.7-1.1,0.7h-0.4
		c-0.8,0-1.1-0.3-1.1-0.8h-0.8C149.9,39.6,150.6,40.2,151.8,40.2"/>
	<path class="st25" d="M113.2,48.9h0.5c1.1,0,1.7-0.5,1.7-1.3c0-0.9-0.6-1.2-1.4-1.3c-0.2,0-0.6-0.1-0.8-0.2
		c-0.5-0.1-0.8-0.2-0.8-0.7c0-0.4,0.3-0.6,0.9-0.6h0.3c0.7,0,0.9,0.3,0.9,0.7h0.7c0-0.8-0.6-1.3-1.6-1.3h-0.4
		c-1.1,0-1.6,0.5-1.6,1.2c0,0.9,0.6,1.2,1.3,1.3c0.2,0,0.6,0.1,0.7,0.2c0.5,0.1,0.9,0.2,0.9,0.7c0,0.4-0.3,0.6-1,0.6h-0.4
		c-0.7,0-0.9-0.3-1-0.7h-0.7C111.6,48.4,112.1,48.9,113.2,48.9"/>
	<path class="st25" d="M118,48.2h-0.3c-0.7,0-1.1-0.4-1.1-1.1v-1c0-0.7,0.4-1.1,1.1-1.1h0.3c0.7,0,1.1,0.4,1.1,1.1v1
		C119.1,47.8,118.7,48.2,118,48.2 M117.7,48.9h0.3c1.2,0,1.8-0.7,1.8-1.8v-1c0-1.1-0.7-1.8-1.8-1.8h-0.3c-1.2,0-1.8,0.7-1.8,1.8v1
		C115.9,48.2,116.6,48.9,117.7,48.9z"/>
	<path class="st25" d="M122.1,48.9h0.5c1.1,0,1.7-0.5,1.7-1.3c0-0.9-0.6-1.2-1.4-1.3c-0.2,0-0.6-0.1-0.8-0.2
		c-0.5-0.1-0.8-0.2-0.8-0.7c0-0.4,0.3-0.6,0.9-0.6h0.3c0.7,0,0.9,0.3,0.9,0.7h0.7c0-0.8-0.6-1.3-1.6-1.3h-0.4
		c-1.1,0-1.6,0.5-1.6,1.2c0,0.9,0.6,1.2,1.3,1.3c0.2,0,0.6,0.1,0.7,0.2c0.5,0.1,0.9,0.2,0.9,0.7c0,0.4-0.3,0.6-1,0.6h-0.4
		c-0.7,0-0.9-0.3-1-0.7h-0.7C120.5,48.4,121,48.9,122.1,48.9"/>
	<path class="st25" d="M124.9,43.2v3.9c0,1.1,0.7,1.7,1.8,1.7h0.5v-0.7h-0.4c-0.6,0-1.2-0.3-1.2-1.1v-2h1.5v-0.7h-1.5v-1.1
		C125.6,43.2,124.9,43.2,124.9,43.2z"/>
	<path class="st25" d="M128.2,46.3V46c0-0.7,0.4-1.1,1.1-1.1h0.3c0.7,0,1.1,0.4,1.1,1.1v0.2H128.2L128.2,46.3z M129.3,48.9h0.3
		c1,0,1.6-0.5,1.8-1.4h-0.8c-0.1,0.4-0.5,0.7-1.1,0.7h-0.3c-0.7,0-1.1-0.4-1.1-1.1v-0.2h3.2v-0.8c0-1.1-0.7-1.8-1.8-1.8h-0.3
		c-1.2,0-1.8,0.7-1.8,1.8v1C127.5,48.2,128.2,48.9,129.3,48.9L129.3,48.9z"/>
	<path class="st25" d="M132.3,46v2.8h0.7v-2.7c0-0.7,0.4-1.1,1.1-1.1h0.2c0.7,0,1.1,0.4,1.1,1.1v2.7h0.7V46c0-1.1-0.7-1.8-1.8-1.8
		H134C132.9,44.2,132.2,44.9,132.3,46"/>
	<path class="st25" d="M137,43.7h0.7v-0.9H137V43.7z M137,48.8h0.7v-4.4H137V48.8z"/>
	<path class="st25" d="M140.8,48.2h-0.3c-0.7,0-1.1-0.4-1.1-1.1v-1c0-0.7,0.4-1.1,1.1-1.1h0.3c0.7,0,1.1,0.4,1.1,1.1v1
		C141.9,47.8,141.5,48.2,140.8,48.2 M140.5,48.9h0.3c1.2,0,1.8-0.7,1.8-1.8v-1c0-1.1-0.7-1.8-1.7-1.8h-0.4c-0.5,0-0.9,0.2-1.1,0.4
		v-0.2v-1.8h-0.7v4.5C138.7,48.2,139.3,48.9,140.5,48.9L140.5,48.9z"/>
	<path class="st25" d="M143.5,42.6v4.7c0,1,0.5,1.5,1.4,1.5h0.5v-0.7h-0.4c-0.6,0-0.8-0.3-0.8-0.8v-4.7L143.5,42.6L143.5,42.6z"/>
	<path class="st25" d="M146.4,46.3V46c0-0.7,0.4-1.1,1.1-1.1h0.3c0.7,0,1.1,0.4,1.1,1.1v0.2H146.4L146.4,46.3z M147.6,48.9h0.3
		c1,0,1.6-0.5,1.8-1.4h-0.8c-0.1,0.4-0.5,0.7-1.1,0.7h-0.3c-0.7,0-1.1-0.4-1.1-1.1v-0.2h3.2v-0.8c0-1.1-0.7-1.8-1.8-1.8h-0.3
		c-1.2,0-1.8,0.7-1.8,1.8v1C145.7,48.2,146.4,48.9,147.6,48.9L147.6,48.9z"/>
	<path class="st25" d="M151.9,48.9h0.5c1.1,0,1.7-0.5,1.7-1.3c0-0.9-0.6-1.2-1.4-1.3c-0.2,0-0.6-0.1-0.8-0.2
		c-0.5-0.1-0.8-0.2-0.8-0.7c0-0.4,0.3-0.6,0.9-0.6h0.3c0.7,0,0.9,0.3,0.9,0.7h0.7c0-0.8-0.6-1.3-1.6-1.3h-0.4
		c-1.1,0-1.6,0.5-1.6,1.2c0,0.9,0.6,1.2,1.4,1.3c0.2,0,0.6,0.1,0.7,0.2c0.5,0.1,0.9,0.2,0.9,0.7c0,0.4-0.3,0.6-1,0.6h-0.4
		c-0.7,0-0.9-0.3-1-0.7h-0.7C150.2,48.4,150.8,48.9,151.9,48.9"/>
</g>
<rect class="st26" width="180" height="60"/>
</svg>
